HIERARCHY
ROOT Hips
{
	OFFSET 0.000000 0.000000 0.000000 
	CHANNELS 6 Xposition Yposition Zposition Zrotation Yrotation Xrotation
	JOINT LeftUpLeg
	{
		OFFSET 1.363060 -1.794630 0.839290 
		CHANNELS 3 Zrotation Yrotation Xrotation
		JOINT LeftLeg
		{
			OFFSET 2.448110 -6.726130 0.000000 
			CHANNELS 3 Zrotation Yrotation Xrotation
			JOINT LeftFoot
			{
				OFFSET 2.562200 -7.039590 0.000000 
				CHANNELS 3 Zrotation Yrotation Xrotation
				JOINT LeftToeBase
				{
					OFFSET 0.157640 -0.433110 2.322550 
					CHANNELS 3 Zrotation Yrotation Xrotation
					End Site
					{
						OFFSET 0.000000 0.000000 0.000000 
					}
				}
			}
		}
	}
	JOINT RightUpLeg
	{
		OFFSET -1.305520 -1.794630 0.839290 
		CHANNELS 3 Zrotation Yrotation Xrotation
		JOINT RightLeg
		{
			OFFSET -2.542530 -6.985550 0.000000 
			CHANNELS 3 Zrotation Yrotation Xrotation
			JOINT RightFoot
			{
				OFFSET -2.568260 -7.056230 0.000000 
				CHANNELS 3 Zrotation Yrotation Xrotation
				JOINT RightToeBase
				{
					OFFSET -0.164730 -0.452590 2.363150 
					CHANNELS 3 Zrotation Yrotation Xrotation
					End Site
					{
						OFFSET 0.000000 0.000000 0.000000 
					}
				}
			}
		}
	}
	JOINT Spine
	{
		OFFSET 0.028270 2.035590 -0.193380 
		CHANNELS 3 Zrotation Yrotation Xrotation
		JOINT Spine1
		{
			OFFSET 0.056720 2.048850 -0.042750 
			CHANNELS 3 Zrotation Yrotation Xrotation
			JOINT Neck1
			{
				OFFSET -0.054170 1.746240 0.172020 
				CHANNELS 3 Zrotation Yrotation Xrotation
				JOINT Head
				{
					OFFSET 0.104070 1.761360 -0.123970 
					CHANNELS 3 Zrotation Yrotation Xrotation
					End Site
					{
						OFFSET 0.000000 0.000000 0.000000 
					}
				}
			}
			JOINT LeftArm
			{
				OFFSET 3.362410 1.200890 -0.311210 
				CHANNELS 3 Zrotation Yrotation Xrotation
				JOINT LeftForeArm
				{
					OFFSET 4.983000 -0.000000 -0.000000 
					CHANNELS 3 Zrotation Yrotation Xrotation
					JOINT LeftHand
					{
						OFFSET 3.483560 -0.000000 -0.000000 
						CHANNELS 3 Zrotation Yrotation Xrotation
						JOINT LeftHandIndex1
						{
							OFFSET 0.715260 -0.000000 -0.000000 
							CHANNELS 3 Zrotation Yrotation Xrotation
							End Site
							{
								OFFSET 0.000000 0.000000 0.000000 
							}
						}
					}
				}
			}
			JOINT RightArm
			{
				OFFSET -3.136600 1.374050 -0.404650 
				CHANNELS 3 Zrotation Yrotation Xrotation
				JOINT RightForeArm
				{
					OFFSET -5.241900 -0.000000 -0.000000 
					CHANNELS 3 Zrotation Yrotation Xrotation
					JOINT RightHand
					{
						OFFSET -3.444170 -0.000000 -0.000000 
						CHANNELS 3 Zrotation Yrotation Xrotation
						JOINT RightHandIndex1
						{
							OFFSET -0.622530 -0.000000 -0.000000 
							CHANNELS 3 Zrotation Yrotation Xrotation
							End Site
							{
								OFFSET 0.000000 0.000000 0.000000 
							}
						}
					}
				}
			}
		}
	}
}
MOTION
Frames: 9
Frame Time: 0.041667
3.507205 19.431290 -4.712790 171.437431 -36.129848 -172.105183 15.443000 -21.323031 -10.194578 33.200904 14.318160 133.354677 0.097047 2.168305 -4.139546 0.312400 3.592900 9.934200 13.027430 22.007921 -7.783625 0.185618 0.448236 1.859766 -5.134140 -32.172999 27.673548 -0.103900 2.078600 -5.723100 -0.327700 -7.471112 -3.166073 2.592367 -4.822643 10.859069 7.756301 -11.938960 19.497930 1.057400 -5.911700 32.340900 -19.053063 14.751271 40.015822 93.632403 -59.561337 -61.130204 1.777199 -0.732763 17.688747 -7.125000 0.000000 0.000000 85.074528 -55.036325 -17.001190 -54.253843 55.943814 -24.305425 0.503685 -1.781093 3.764738 7.125000 0.000000 0.000000 
3.541174 19.174823 -5.034966 170.998056 -36.428900 -171.874575 15.453786 -24.087527 -10.982041 33.652503 14.107153 134.977912 0.118890 2.969521 -5.356829 0.243600 3.176000 8.769100 13.574843 21.426088 -6.443768 0.177371 0.610191 1.874403 -5.170830 -32.704984 28.821962 -0.038300 1.263000 -3.472700 -0.396884 -7.167825 -3.145497 2.488274 -4.674887 10.958900 7.710256 -12.061723 19.422315 1.058600 -5.936500 32.245000 -19.990166 15.499666 39.804498 93.605696 -59.635935 -61.041981 1.753602 -0.687850 17.326507 -7.125000 0.000000 0.000000 86.659720 -54.810943 -16.940708 -56.020994 56.916517 -25.660338 0.515698 -1.736027 3.820142 7.125000 0.000000 0.000000 
3.575143 18.911669 -5.349817 170.655419 -36.731422 -171.176849 15.342829 -26.851544 -11.919434 34.117173 14.029173 136.539303 0.123927 3.898209 -6.195472 0.195200 2.844900 7.847200 12.679191 24.263390 -10.913815 0.622121 -2.899171 10.200148 -4.072844 -35.392330 22.320884 -0.000700 -0.170000 0.467100 -0.454951 -6.897448 -3.123611 2.372918 -4.548577 11.017923 7.661273 -12.161505 19.313605 1.052100 -5.941200 32.074900 -21.144571 16.116341 39.588043 93.617251 -59.696503 -60.962968 1.734336 -0.639435 17.102214 -7.125000 0.000000 0.000000 88.113970 -54.441355 -16.686081 -57.689095 57.775175 -26.921515 0.527470 -1.699039 3.829606 7.125000 0.000000 0.000000 
3.609325 18.642994 -5.655964 170.274623 -36.994098 -170.686766 15.240977 -29.656844 -12.954207 34.554020 13.963100 138.008793 0.114391 4.919795 -6.719582 0.166700 2.630600 7.251800 11.906301 25.528917 -13.371341 0.677076 -5.329632 15.678781 -2.288070 -37.893546 15.063709 -0.075200 -1.768500 4.866200 -0.510579 -6.595433 -3.102049 2.225176 -4.381263 11.032849 7.615054 -12.252556 19.152510 1.042900 -5.933600 31.832200 -22.491369 16.591656 39.386799 93.611992 -59.750194 -60.842770 1.719755 -0.589211 17.139459 -7.125000 0.000000 0.000000 89.405270 -53.907027 -16.179012 -59.236495 58.520092 -28.067377 0.542133 -1.671055 3.738946 7.125000 0.000000 0.000000 
3.643506 18.369012 -5.951177 169.979482 -37.202060 -170.392993 15.245978 -32.455669 -14.113271 34.973106 13.927849 139.391505 0.087861 5.950610 -7.016347 0.157200 2.554800 7.041600 11.691730 25.102841 -15.192435 0.332732 -7.376742 20.289230 -0.540205 -38.053486 6.306974 -0.261300 -3.288500 9.082900 -0.560034 -6.265751 -3.077808 2.050618 -4.175234 10.987061 7.595106 -12.343980 18.960834 1.078700 -5.941600 31.549300 -24.068516 16.942141 39.211307 93.623695 -59.798016 -60.710908 1.708335 -0.537216 17.414041 -7.125000 0.000000 0.000000 90.434391 -53.160270 -15.326853 -60.540510 59.116040 -28.999801 0.557314 -1.650324 3.595489 7.125000 0.000000 0.000000 
3.677263 18.093332 -6.232271 169.885649 -37.409725 -170.286579 15.366580 -35.207976 -15.398953 35.373262 13.927854 140.677616 0.045838 6.944864 -7.173239 0.159400 2.572300 7.090300 11.804475 24.577629 -16.763395 -0.270361 -9.233910 24.794767 -0.218099 -34.954871 0.535446 -0.216500 -2.995100 8.265100 -0.602019 -5.932410 -3.048874 1.809349 -3.949494 10.868304 7.582337 -12.471882 18.795173 1.117300 -5.946600 31.156200 -25.884251 17.157955 39.049475 93.589935 -59.839534 -60.512209 1.697323 -0.484321 17.921543 -7.125000 0.000000 0.000000 91.191510 -52.148259 -14.105517 -61.531748 59.563015 -29.668625 0.571275 -1.637584 3.509024 7.125000 0.000000 0.000000 
3.709640 17.818606 -6.495851 170.030584 -37.568554 -170.421654 15.648539 -37.782389 -16.807089 35.748830 13.956729 141.849095 -0.003355 7.842379 -7.350738 0.168200 2.642500 7.284900 12.202594 24.139378 -18.228483 -1.001608 -10.938431 29.362850 -0.978992 -29.338991 -0.034168 0.000000 0.042300 -0.116100 -0.634943 -5.587922 -3.015574 1.499700 -3.697702 10.643801 7.578556 -12.588918 18.561979 1.153100 -5.948600 30.782600 -27.963599 17.276733 38.914845 93.486134 -59.878791 -60.227870 1.685564 -0.430267 18.582468 -7.125000 0.000000 0.000000 91.595980 -50.808836 -12.429482 -62.087600 59.838874 -29.985548 0.582054 -1.635957 3.579822 7.125000 0.000000 0.000000 
3.740106 17.550781 -6.739154 170.390819 -37.584022 -170.857894 15.991443 -39.989542 -18.267764 36.084503 14.004368 142.870037 -0.052735 8.610301 -7.596693 0.178200 2.719000 7.497300 12.818204 23.772156 -19.524106 -1.846186 -12.501226 33.776228 -1.499300 -23.159988 0.492646 -0.419500 4.157400 -11.519800 -0.656888 -5.214686 -2.971076 1.146094 -3.417034 10.325142 7.571568 -12.670064 18.295653 1.178100 -5.933100 30.396200 -30.367703 17.356625 38.769981 93.294728 -59.923316 -59.847903 1.670636 -0.372517 19.302705 -7.125000 0.000000 0.000000 91.564574 -49.033744 -10.233619 -62.076872 59.920889 -29.861568 0.587160 -1.646973 3.930507 7.125000 0.000000 0.000000 
3.766857 17.297924 -6.961864 170.977362 -37.385857 -171.641958 16.323236 -41.581666 -19.743071 36.363849 14.056047 143.702211 -0.098166 9.327834 -7.959246 0.186600 2.781800 7.671900 13.674303 23.510663 -20.585698 -2.740903 -13.885109 37.837568 -1.518250 -18.057698 -0.204393 -1.274400 7.154700 -20.174500 -0.666505 -4.810794 -2.917435 0.746273 -3.107508 9.897461 7.542230 -12.662562 17.997506 1.168100 -5.874900 29.977100 -33.073995 17.503236 38.646042 93.061599 -59.974137 -59.423664 1.652600 -0.309143 19.967269 -7.125000 0.000000 0.000000 91.052917 -46.792335 -7.460800 -61.474687 59.807894 -29.293643 0.590582 -1.674581 4.601928 7.125000 0.000000 0.000000 
